G04 MADE WITH FRITZING*
G04 WWW.FRITZING.ORG*
G04 DOUBLE SIDED*
G04 HOLES PLATED*
G04 CONTOUR ON CENTER OF CONTOUR VECTOR*
%ASAXBY*%
%FSLAX23Y23*%
%MOIN*%
%OFA0B0*%
%SFA1.0B1.0*%
%ADD10R,2.185680X1.930260X2.169680X1.914260*%
%ADD11C,0.008000*%
%ADD12R,0.001000X0.001000*%
%LNSILK1*%
G90*
G70*
G54D11*
X4Y1926D02*
X2182Y1926D01*
X2182Y4D01*
X4Y4D01*
X4Y1926D01*
D02*
G54D12*
X0Y1832D02*
X0Y1832D01*
X0Y1831D02*
X0Y1831D01*
X0Y1830D02*
X1Y1830D01*
X0Y1829D02*
X1Y1829D01*
X0Y1828D02*
X2Y1828D01*
X0Y1827D02*
X3Y1827D01*
X0Y1826D02*
X3Y1826D01*
X0Y1825D02*
X4Y1825D01*
X0Y1824D02*
X4Y1824D01*
X0Y1823D02*
X5Y1823D01*
X0Y1822D02*
X5Y1822D01*
X0Y1821D02*
X5Y1821D01*
X0Y1820D02*
X6Y1820D01*
X0Y1819D02*
X6Y1819D01*
X0Y1818D02*
X6Y1818D01*
X0Y1817D02*
X7Y1817D01*
X0Y1816D02*
X7Y1816D01*
X0Y1815D02*
X7Y1815D01*
X0Y1814D02*
X8Y1814D01*
X0Y1813D02*
X8Y1813D01*
X0Y1812D02*
X8Y1812D01*
X0Y1811D02*
X8Y1811D01*
X0Y1810D02*
X9Y1810D01*
X2176Y1810D02*
X2185Y1810D01*
X0Y1809D02*
X9Y1809D01*
X2176Y1809D02*
X2185Y1809D01*
X0Y1808D02*
X9Y1808D01*
X2176Y1808D02*
X2185Y1808D01*
X0Y1807D02*
X9Y1807D01*
X2175Y1807D02*
X2185Y1807D01*
X0Y1806D02*
X9Y1806D01*
X2175Y1806D02*
X2185Y1806D01*
X0Y1805D02*
X9Y1805D01*
X2175Y1805D02*
X2185Y1805D01*
X0Y1804D02*
X9Y1804D01*
X2175Y1804D02*
X2184Y1804D01*
X0Y1803D02*
X9Y1803D01*
X2175Y1803D02*
X2184Y1803D01*
X0Y1802D02*
X10Y1802D01*
X2175Y1802D02*
X2184Y1802D01*
X0Y1801D02*
X10Y1801D01*
X2175Y1801D02*
X2184Y1801D01*
X0Y1800D02*
X10Y1800D01*
X2175Y1800D02*
X2184Y1800D01*
X0Y1799D02*
X10Y1799D01*
X2175Y1799D02*
X2184Y1799D01*
X0Y1798D02*
X10Y1798D01*
X2175Y1798D02*
X2184Y1798D01*
X0Y1797D02*
X10Y1797D01*
X2175Y1797D02*
X2184Y1797D01*
X0Y1796D02*
X9Y1796D01*
X2175Y1796D02*
X2184Y1796D01*
X0Y1795D02*
X9Y1795D01*
X2175Y1795D02*
X2184Y1795D01*
X0Y1794D02*
X9Y1794D01*
X2175Y1794D02*
X2184Y1794D01*
X0Y1793D02*
X9Y1793D01*
X2175Y1793D02*
X2185Y1793D01*
X0Y1792D02*
X9Y1792D01*
X2175Y1792D02*
X2185Y1792D01*
X0Y1791D02*
X9Y1791D01*
X2175Y1791D02*
X2185Y1791D01*
X0Y1790D02*
X9Y1790D01*
X2176Y1790D02*
X2185Y1790D01*
X0Y1789D02*
X9Y1789D01*
X2176Y1789D02*
X2185Y1789D01*
X0Y1788D02*
X9Y1788D01*
X2176Y1788D02*
X2185Y1788D01*
X0Y1787D02*
X8Y1787D01*
X0Y1786D02*
X8Y1786D01*
X0Y1785D02*
X8Y1785D01*
X0Y1784D02*
X8Y1784D01*
X0Y1783D02*
X7Y1783D01*
X0Y1782D02*
X7Y1782D01*
X0Y1781D02*
X7Y1781D01*
X0Y1780D02*
X6Y1780D01*
X0Y1779D02*
X6Y1779D01*
X0Y1778D02*
X6Y1778D01*
X0Y1777D02*
X5Y1777D01*
X0Y1776D02*
X5Y1776D01*
X0Y1775D02*
X4Y1775D01*
X0Y1774D02*
X4Y1774D01*
X0Y1773D02*
X3Y1773D01*
X0Y1772D02*
X3Y1772D01*
X0Y1771D02*
X2Y1771D01*
X0Y1770D02*
X2Y1770D01*
X0Y1769D02*
X1Y1769D01*
X0Y1768D02*
X1Y1768D01*
X0Y1767D02*
X0Y1767D01*
X1333Y1340D02*
X1801Y1340D01*
X1325Y1339D02*
X1808Y1339D01*
X1320Y1338D02*
X1813Y1338D01*
X1317Y1337D02*
X1817Y1337D01*
X1313Y1336D02*
X1821Y1336D01*
X1310Y1335D02*
X1824Y1335D01*
X1307Y1334D02*
X1827Y1334D01*
X1305Y1333D02*
X1829Y1333D01*
X1302Y1332D02*
X1332Y1332D01*
X1802Y1332D02*
X1831Y1332D01*
X1300Y1331D02*
X1325Y1331D01*
X1809Y1331D02*
X1834Y1331D01*
X1298Y1330D02*
X1320Y1330D01*
X1814Y1330D02*
X1836Y1330D01*
X1296Y1329D02*
X1316Y1329D01*
X1818Y1329D02*
X1838Y1329D01*
X1294Y1328D02*
X1313Y1328D01*
X1821Y1328D02*
X1840Y1328D01*
X1293Y1327D02*
X1310Y1327D01*
X1824Y1327D02*
X1841Y1327D01*
X1291Y1326D02*
X1307Y1326D01*
X1827Y1326D02*
X1843Y1326D01*
X1289Y1325D02*
X1305Y1325D01*
X1829Y1325D02*
X1845Y1325D01*
X1288Y1324D02*
X1303Y1324D01*
X1831Y1324D02*
X1846Y1324D01*
X1286Y1323D02*
X1301Y1323D01*
X1833Y1323D02*
X1848Y1323D01*
X1285Y1322D02*
X1299Y1322D01*
X1835Y1322D02*
X1849Y1322D01*
X1283Y1321D02*
X1297Y1321D01*
X1837Y1321D02*
X1850Y1321D01*
X1282Y1320D02*
X1295Y1320D01*
X1839Y1320D02*
X1852Y1320D01*
X1281Y1319D02*
X1294Y1319D01*
X1840Y1319D02*
X1853Y1319D01*
X1279Y1318D02*
X1292Y1318D01*
X1842Y1318D02*
X1855Y1318D01*
X1278Y1317D02*
X1290Y1317D01*
X1844Y1317D02*
X1856Y1317D01*
X1277Y1316D02*
X1289Y1316D01*
X1845Y1316D02*
X1857Y1316D01*
X1276Y1315D02*
X1288Y1315D01*
X1846Y1315D02*
X1858Y1315D01*
X1275Y1314D02*
X1286Y1314D01*
X1848Y1314D02*
X1859Y1314D01*
X1274Y1313D02*
X1285Y1313D01*
X1849Y1313D02*
X1860Y1313D01*
X1273Y1312D02*
X1284Y1312D01*
X1850Y1312D02*
X1861Y1312D01*
X1272Y1311D02*
X1282Y1311D01*
X1851Y1311D02*
X1862Y1311D01*
X1271Y1310D02*
X1281Y1310D01*
X1853Y1310D02*
X1863Y1310D01*
X1270Y1309D02*
X1280Y1309D01*
X1854Y1309D02*
X1864Y1309D01*
X1269Y1308D02*
X1279Y1308D01*
X1855Y1308D02*
X1865Y1308D01*
X1268Y1307D02*
X1278Y1307D01*
X1856Y1307D02*
X1866Y1307D01*
X1267Y1306D02*
X1277Y1306D01*
X1857Y1306D02*
X1867Y1306D01*
X1266Y1305D02*
X1276Y1305D01*
X1858Y1305D02*
X1868Y1305D01*
X1265Y1304D02*
X1275Y1304D01*
X1859Y1304D02*
X1869Y1304D01*
X1264Y1303D02*
X1274Y1303D01*
X1860Y1303D02*
X1869Y1303D01*
X1264Y1302D02*
X1273Y1302D01*
X1861Y1302D02*
X1870Y1302D01*
X1263Y1301D02*
X1272Y1301D01*
X1862Y1301D02*
X1871Y1301D01*
X1262Y1300D02*
X1271Y1300D01*
X1862Y1300D02*
X1872Y1300D01*
X1262Y1299D02*
X1270Y1299D01*
X1863Y1299D02*
X1872Y1299D01*
X1261Y1298D02*
X1270Y1298D01*
X1864Y1298D02*
X1873Y1298D01*
X1260Y1297D02*
X1269Y1297D01*
X1865Y1297D02*
X1874Y1297D01*
X1259Y1296D02*
X1268Y1296D01*
X1866Y1296D02*
X1874Y1296D01*
X1259Y1295D02*
X1267Y1295D01*
X1866Y1295D02*
X1875Y1295D01*
X1258Y1294D02*
X1267Y1294D01*
X1867Y1294D02*
X1876Y1294D01*
X1258Y1293D02*
X1266Y1293D01*
X1868Y1293D02*
X1876Y1293D01*
X1257Y1292D02*
X1265Y1292D01*
X1869Y1292D02*
X1877Y1292D01*
X1256Y1291D02*
X1265Y1291D01*
X1869Y1291D02*
X1877Y1291D01*
X1256Y1290D02*
X1264Y1290D01*
X1870Y1290D02*
X1878Y1290D01*
X1255Y1289D02*
X1263Y1289D01*
X1871Y1289D02*
X1879Y1289D01*
X1255Y1288D02*
X1263Y1288D01*
X1871Y1288D02*
X1879Y1288D01*
X1254Y1287D02*
X1262Y1287D01*
X1872Y1287D02*
X1880Y1287D01*
X1254Y1286D02*
X1262Y1286D01*
X1872Y1286D02*
X1880Y1286D01*
X1253Y1285D02*
X1261Y1285D01*
X1873Y1285D02*
X1881Y1285D01*
X1253Y1284D02*
X1260Y1284D01*
X1873Y1284D02*
X1881Y1284D01*
X1252Y1283D02*
X1260Y1283D01*
X1874Y1283D02*
X1882Y1283D01*
X1252Y1282D02*
X1259Y1282D01*
X1875Y1282D02*
X1882Y1282D01*
X1251Y1281D02*
X1259Y1281D01*
X1875Y1281D02*
X1883Y1281D01*
X1251Y1280D02*
X1258Y1280D01*
X1875Y1280D02*
X1883Y1280D01*
X1250Y1279D02*
X1258Y1279D01*
X1876Y1279D02*
X1884Y1279D01*
X1250Y1278D02*
X1258Y1278D01*
X1876Y1278D02*
X1884Y1278D01*
X1249Y1277D02*
X1257Y1277D01*
X1877Y1277D02*
X1884Y1277D01*
X1249Y1276D02*
X1257Y1276D01*
X1877Y1276D02*
X1885Y1276D01*
X1249Y1275D02*
X1256Y1275D01*
X1878Y1275D02*
X1885Y1275D01*
X1248Y1274D02*
X1256Y1274D01*
X1878Y1274D02*
X1885Y1274D01*
X1248Y1273D02*
X1255Y1273D01*
X1879Y1273D02*
X1886Y1273D01*
X1248Y1272D02*
X1255Y1272D01*
X1879Y1272D02*
X1886Y1272D01*
X1247Y1271D02*
X1255Y1271D01*
X1879Y1271D02*
X1887Y1271D01*
X1247Y1270D02*
X1254Y1270D01*
X1880Y1270D02*
X1887Y1270D01*
X1247Y1269D02*
X1254Y1269D01*
X1880Y1269D02*
X1887Y1269D01*
X1246Y1268D02*
X1254Y1268D01*
X1880Y1268D02*
X1887Y1268D01*
X1246Y1267D02*
X1253Y1267D01*
X1881Y1267D02*
X1888Y1267D01*
X1246Y1266D02*
X1253Y1266D01*
X1881Y1266D02*
X1888Y1266D01*
X1246Y1265D02*
X1253Y1265D01*
X1881Y1265D02*
X1888Y1265D01*
X1245Y1264D02*
X1252Y1264D01*
X1881Y1264D02*
X1888Y1264D01*
X1245Y1263D02*
X1252Y1263D01*
X1882Y1263D02*
X1889Y1263D01*
X1245Y1262D02*
X1252Y1262D01*
X1882Y1262D02*
X1889Y1262D01*
X1245Y1261D02*
X1252Y1261D01*
X1882Y1261D02*
X1889Y1261D01*
X1244Y1260D02*
X1252Y1260D01*
X1882Y1260D02*
X1889Y1260D01*
X1244Y1259D02*
X1251Y1259D01*
X1883Y1259D02*
X1890Y1259D01*
X1244Y1258D02*
X1251Y1258D01*
X1883Y1258D02*
X1890Y1258D01*
X1244Y1257D02*
X1251Y1257D01*
X1883Y1257D02*
X1890Y1257D01*
X1244Y1256D02*
X1251Y1256D01*
X1883Y1256D02*
X1890Y1256D01*
X1244Y1255D02*
X1251Y1255D01*
X1883Y1255D02*
X1890Y1255D01*
X1243Y1254D02*
X1250Y1254D01*
X1883Y1254D02*
X1890Y1254D01*
X1243Y1253D02*
X1250Y1253D01*
X1884Y1253D02*
X1891Y1253D01*
X1243Y1252D02*
X1250Y1252D01*
X1884Y1252D02*
X1891Y1252D01*
X1243Y1251D02*
X1250Y1251D01*
X1884Y1251D02*
X1891Y1251D01*
X1243Y1250D02*
X1250Y1250D01*
X1884Y1250D02*
X1891Y1250D01*
X1243Y1249D02*
X1250Y1249D01*
X1884Y1249D02*
X1891Y1249D01*
X1243Y1248D02*
X1250Y1248D01*
X1884Y1248D02*
X1891Y1248D01*
X1243Y1247D02*
X1250Y1247D01*
X1884Y1247D02*
X1891Y1247D01*
X1243Y1246D02*
X1250Y1246D01*
X1884Y1246D02*
X1891Y1246D01*
X1243Y1245D02*
X1250Y1245D01*
X1884Y1245D02*
X1891Y1245D01*
X1243Y1244D02*
X1250Y1244D01*
X1884Y1244D02*
X1891Y1244D01*
X1243Y1243D02*
X1250Y1243D01*
X1884Y1243D02*
X1891Y1243D01*
X1243Y1242D02*
X1250Y1242D01*
X1884Y1242D02*
X1891Y1242D01*
X1243Y1241D02*
X1250Y1241D01*
X1884Y1241D02*
X1891Y1241D01*
X1243Y1240D02*
X1250Y1240D01*
X1884Y1240D02*
X1891Y1240D01*
X1243Y1239D02*
X1250Y1239D01*
X1884Y1239D02*
X1891Y1239D01*
X1243Y1238D02*
X1250Y1238D01*
X1884Y1238D02*
X1891Y1238D01*
X1242Y1237D02*
X1250Y1237D01*
X1884Y1237D02*
X1891Y1237D01*
X1243Y1236D02*
X1250Y1236D01*
X1884Y1236D02*
X1891Y1236D01*
X1243Y1235D02*
X1250Y1235D01*
X1884Y1235D02*
X1891Y1235D01*
X1243Y1234D02*
X1250Y1234D01*
X1884Y1234D02*
X1891Y1234D01*
X1243Y1233D02*
X1250Y1233D01*
X1884Y1233D02*
X1891Y1233D01*
X1243Y1232D02*
X1250Y1232D01*
X1884Y1232D02*
X1891Y1232D01*
X1243Y1231D02*
X1250Y1231D01*
X1884Y1231D02*
X1891Y1231D01*
X1243Y1230D02*
X1250Y1230D01*
X1884Y1230D02*
X1891Y1230D01*
X1243Y1229D02*
X1250Y1229D01*
X1884Y1229D02*
X1891Y1229D01*
X1243Y1228D02*
X1250Y1228D01*
X1884Y1228D02*
X1891Y1228D01*
X1243Y1227D02*
X1250Y1227D01*
X1884Y1227D02*
X1891Y1227D01*
X1243Y1226D02*
X1250Y1226D01*
X1884Y1226D02*
X1891Y1226D01*
X1243Y1225D02*
X1250Y1225D01*
X1884Y1225D02*
X1891Y1225D01*
X1243Y1224D02*
X1250Y1224D01*
X1884Y1224D02*
X1891Y1224D01*
X1243Y1223D02*
X1250Y1223D01*
X1884Y1223D02*
X1891Y1223D01*
X1243Y1222D02*
X1250Y1222D01*
X1884Y1222D02*
X1891Y1222D01*
X1243Y1221D02*
X1250Y1221D01*
X1884Y1221D02*
X1891Y1221D01*
X1243Y1220D02*
X1250Y1220D01*
X1884Y1220D02*
X1891Y1220D01*
X1243Y1219D02*
X1250Y1219D01*
X1884Y1219D02*
X1891Y1219D01*
X1243Y1218D02*
X1250Y1218D01*
X1884Y1218D02*
X1891Y1218D01*
X1243Y1217D02*
X1250Y1217D01*
X1884Y1217D02*
X1891Y1217D01*
X1243Y1216D02*
X1250Y1216D01*
X1884Y1216D02*
X1891Y1216D01*
X1243Y1215D02*
X1250Y1215D01*
X1884Y1215D02*
X1891Y1215D01*
X1243Y1214D02*
X1250Y1214D01*
X1884Y1214D02*
X1891Y1214D01*
X1243Y1213D02*
X1250Y1213D01*
X1884Y1213D02*
X1891Y1213D01*
X1243Y1212D02*
X1250Y1212D01*
X1884Y1212D02*
X1891Y1212D01*
X1243Y1211D02*
X1250Y1211D01*
X1884Y1211D02*
X1891Y1211D01*
X1243Y1210D02*
X1250Y1210D01*
X1884Y1210D02*
X1891Y1210D01*
X1243Y1209D02*
X1250Y1209D01*
X1884Y1209D02*
X1891Y1209D01*
X1243Y1208D02*
X1250Y1208D01*
X1884Y1208D02*
X1891Y1208D01*
X1243Y1207D02*
X1250Y1207D01*
X1884Y1207D02*
X1891Y1207D01*
X1243Y1206D02*
X1250Y1206D01*
X1884Y1206D02*
X1891Y1206D01*
X1243Y1205D02*
X1250Y1205D01*
X1884Y1205D02*
X1891Y1205D01*
X1243Y1204D02*
X1250Y1204D01*
X1884Y1204D02*
X1891Y1204D01*
X1243Y1203D02*
X1250Y1203D01*
X1884Y1203D02*
X1891Y1203D01*
X1243Y1202D02*
X1250Y1202D01*
X1884Y1202D02*
X1891Y1202D01*
X1243Y1201D02*
X1250Y1201D01*
X1884Y1201D02*
X1891Y1201D01*
X1243Y1200D02*
X1250Y1200D01*
X1884Y1200D02*
X1891Y1200D01*
X1243Y1199D02*
X1250Y1199D01*
X1884Y1199D02*
X1891Y1199D01*
X1243Y1198D02*
X1250Y1198D01*
X1884Y1198D02*
X1891Y1198D01*
X1243Y1197D02*
X1250Y1197D01*
X1884Y1197D02*
X1891Y1197D01*
X1243Y1196D02*
X1250Y1196D01*
X1884Y1196D02*
X1891Y1196D01*
X1243Y1195D02*
X1250Y1195D01*
X1884Y1195D02*
X1891Y1195D01*
X1243Y1194D02*
X1250Y1194D01*
X1884Y1194D02*
X1891Y1194D01*
X1243Y1193D02*
X1250Y1193D01*
X1884Y1193D02*
X1891Y1193D01*
X1243Y1192D02*
X1250Y1192D01*
X1884Y1192D02*
X1891Y1192D01*
X1243Y1191D02*
X1250Y1191D01*
X1884Y1191D02*
X1891Y1191D01*
X1243Y1190D02*
X1250Y1190D01*
X1884Y1190D02*
X1891Y1190D01*
X1243Y1189D02*
X1250Y1189D01*
X1884Y1189D02*
X1891Y1189D01*
X1243Y1188D02*
X1250Y1188D01*
X1884Y1188D02*
X1891Y1188D01*
X1243Y1187D02*
X1250Y1187D01*
X1884Y1187D02*
X1891Y1187D01*
X1243Y1186D02*
X1250Y1186D01*
X1884Y1186D02*
X1891Y1186D01*
X1243Y1185D02*
X1250Y1185D01*
X1884Y1185D02*
X1891Y1185D01*
X1243Y1184D02*
X1250Y1184D01*
X1884Y1184D02*
X1891Y1184D01*
X1243Y1183D02*
X1250Y1183D01*
X1884Y1183D02*
X1891Y1183D01*
X1243Y1182D02*
X1250Y1182D01*
X1884Y1182D02*
X1891Y1182D01*
X1243Y1181D02*
X1250Y1181D01*
X1884Y1181D02*
X1891Y1181D01*
X1243Y1180D02*
X1250Y1180D01*
X1884Y1180D02*
X1891Y1180D01*
X1243Y1179D02*
X1250Y1179D01*
X1884Y1179D02*
X1891Y1179D01*
X1243Y1178D02*
X1250Y1178D01*
X1884Y1178D02*
X1891Y1178D01*
X1243Y1177D02*
X1250Y1177D01*
X1884Y1177D02*
X1891Y1177D01*
X1243Y1176D02*
X1250Y1176D01*
X1884Y1176D02*
X1891Y1176D01*
X1243Y1175D02*
X1250Y1175D01*
X1884Y1175D02*
X1891Y1175D01*
X1243Y1174D02*
X1250Y1174D01*
X1884Y1174D02*
X1891Y1174D01*
X1243Y1173D02*
X1250Y1173D01*
X1884Y1173D02*
X1891Y1173D01*
X1243Y1172D02*
X1250Y1172D01*
X1884Y1172D02*
X1891Y1172D01*
X1243Y1171D02*
X1250Y1171D01*
X1884Y1171D02*
X1891Y1171D01*
X1243Y1170D02*
X1250Y1170D01*
X1884Y1170D02*
X1891Y1170D01*
X1243Y1169D02*
X1250Y1169D01*
X1884Y1169D02*
X1891Y1169D01*
X1243Y1168D02*
X1250Y1168D01*
X1884Y1168D02*
X1891Y1168D01*
X1243Y1167D02*
X1250Y1167D01*
X1884Y1167D02*
X1891Y1167D01*
X1243Y1166D02*
X1250Y1166D01*
X1884Y1166D02*
X1891Y1166D01*
X1243Y1165D02*
X1250Y1165D01*
X1884Y1165D02*
X1891Y1165D01*
X1243Y1164D02*
X1250Y1164D01*
X1884Y1164D02*
X1891Y1164D01*
X1243Y1163D02*
X1250Y1163D01*
X1884Y1163D02*
X1891Y1163D01*
X1243Y1162D02*
X1250Y1162D01*
X1884Y1162D02*
X1891Y1162D01*
X1243Y1161D02*
X1250Y1161D01*
X1884Y1161D02*
X1891Y1161D01*
X1243Y1160D02*
X1250Y1160D01*
X1884Y1160D02*
X1891Y1160D01*
X1243Y1159D02*
X1250Y1159D01*
X1884Y1159D02*
X1891Y1159D01*
X1243Y1158D02*
X1250Y1158D01*
X1884Y1158D02*
X1891Y1158D01*
X1243Y1157D02*
X1250Y1157D01*
X1884Y1157D02*
X1891Y1157D01*
X1243Y1156D02*
X1250Y1156D01*
X1884Y1156D02*
X1891Y1156D01*
X1243Y1155D02*
X1250Y1155D01*
X1884Y1155D02*
X1891Y1155D01*
X1243Y1154D02*
X1250Y1154D01*
X1884Y1154D02*
X1891Y1154D01*
X1243Y1153D02*
X1250Y1153D01*
X1884Y1153D02*
X1891Y1153D01*
X1243Y1152D02*
X1250Y1152D01*
X1884Y1152D02*
X1891Y1152D01*
X1243Y1151D02*
X1250Y1151D01*
X1884Y1151D02*
X1891Y1151D01*
X1243Y1150D02*
X1250Y1150D01*
X1884Y1150D02*
X1891Y1150D01*
X1243Y1149D02*
X1250Y1149D01*
X1884Y1149D02*
X1891Y1149D01*
X1243Y1148D02*
X1250Y1148D01*
X1884Y1148D02*
X1891Y1148D01*
X1243Y1147D02*
X1250Y1147D01*
X1884Y1147D02*
X1891Y1147D01*
X1243Y1146D02*
X1250Y1146D01*
X1884Y1146D02*
X1891Y1146D01*
X1243Y1145D02*
X1250Y1145D01*
X1884Y1145D02*
X1891Y1145D01*
X1243Y1144D02*
X1250Y1144D01*
X1884Y1144D02*
X1891Y1144D01*
X1243Y1143D02*
X1250Y1143D01*
X1884Y1143D02*
X1891Y1143D01*
X1243Y1142D02*
X1250Y1142D01*
X1884Y1142D02*
X1891Y1142D01*
X1243Y1141D02*
X1250Y1141D01*
X1884Y1141D02*
X1891Y1141D01*
X1243Y1140D02*
X1250Y1140D01*
X1884Y1140D02*
X1891Y1140D01*
X1243Y1139D02*
X1250Y1139D01*
X1884Y1139D02*
X1891Y1139D01*
X1243Y1138D02*
X1250Y1138D01*
X1884Y1138D02*
X1891Y1138D01*
X1243Y1137D02*
X1250Y1137D01*
X1884Y1137D02*
X1891Y1137D01*
X1243Y1136D02*
X1250Y1136D01*
X1884Y1136D02*
X1891Y1136D01*
X1243Y1135D02*
X1250Y1135D01*
X1884Y1135D02*
X1891Y1135D01*
X1243Y1134D02*
X1250Y1134D01*
X1884Y1134D02*
X1891Y1134D01*
X1243Y1133D02*
X1250Y1133D01*
X1884Y1133D02*
X1891Y1133D01*
X1243Y1132D02*
X1250Y1132D01*
X1884Y1132D02*
X1891Y1132D01*
X1243Y1131D02*
X1250Y1131D01*
X1884Y1131D02*
X1891Y1131D01*
X1243Y1130D02*
X1250Y1130D01*
X1884Y1130D02*
X1891Y1130D01*
X1243Y1129D02*
X1250Y1129D01*
X1884Y1129D02*
X1891Y1129D01*
X1243Y1128D02*
X1250Y1128D01*
X1884Y1128D02*
X1891Y1128D01*
X1243Y1127D02*
X1250Y1127D01*
X1884Y1127D02*
X1891Y1127D01*
X1243Y1126D02*
X1250Y1126D01*
X1884Y1126D02*
X1891Y1126D01*
X1243Y1125D02*
X1250Y1125D01*
X1884Y1125D02*
X1891Y1125D01*
X1243Y1124D02*
X1250Y1124D01*
X1884Y1124D02*
X1891Y1124D01*
X1243Y1123D02*
X1250Y1123D01*
X1884Y1123D02*
X1891Y1123D01*
X1243Y1122D02*
X1250Y1122D01*
X1884Y1122D02*
X1891Y1122D01*
X1243Y1121D02*
X1250Y1121D01*
X1884Y1121D02*
X1891Y1121D01*
X1243Y1120D02*
X1250Y1120D01*
X1884Y1120D02*
X1891Y1120D01*
X1243Y1119D02*
X1250Y1119D01*
X1884Y1119D02*
X1891Y1119D01*
X1243Y1118D02*
X1250Y1118D01*
X1884Y1118D02*
X1891Y1118D01*
X1243Y1117D02*
X1250Y1117D01*
X1884Y1117D02*
X1891Y1117D01*
X1243Y1116D02*
X1250Y1116D01*
X1884Y1116D02*
X1891Y1116D01*
X1243Y1115D02*
X1250Y1115D01*
X1884Y1115D02*
X1891Y1115D01*
X1243Y1114D02*
X1250Y1114D01*
X1884Y1114D02*
X1891Y1114D01*
X1243Y1113D02*
X1250Y1113D01*
X1884Y1113D02*
X1891Y1113D01*
X1243Y1112D02*
X1250Y1112D01*
X1884Y1112D02*
X1891Y1112D01*
X1243Y1111D02*
X1250Y1111D01*
X1884Y1111D02*
X1891Y1111D01*
X1243Y1110D02*
X1250Y1110D01*
X1884Y1110D02*
X1891Y1110D01*
X1243Y1109D02*
X1250Y1109D01*
X1884Y1109D02*
X1891Y1109D01*
X1243Y1108D02*
X1250Y1108D01*
X1884Y1108D02*
X1891Y1108D01*
X1243Y1107D02*
X1250Y1107D01*
X1884Y1107D02*
X1891Y1107D01*
X1243Y1106D02*
X1250Y1106D01*
X1884Y1106D02*
X1891Y1106D01*
X1243Y1105D02*
X1250Y1105D01*
X1884Y1105D02*
X1891Y1105D01*
X1243Y1104D02*
X1250Y1104D01*
X1884Y1104D02*
X1891Y1104D01*
X1243Y1103D02*
X1250Y1103D01*
X1884Y1103D02*
X1891Y1103D01*
X1243Y1102D02*
X1250Y1102D01*
X1884Y1102D02*
X1891Y1102D01*
X1243Y1101D02*
X1250Y1101D01*
X1884Y1101D02*
X1891Y1101D01*
X1243Y1100D02*
X1250Y1100D01*
X1884Y1100D02*
X1891Y1100D01*
X1243Y1099D02*
X1250Y1099D01*
X1884Y1099D02*
X1891Y1099D01*
X1243Y1098D02*
X1250Y1098D01*
X1884Y1098D02*
X1891Y1098D01*
X1243Y1097D02*
X1250Y1097D01*
X1884Y1097D02*
X1891Y1097D01*
X1243Y1096D02*
X1250Y1096D01*
X1884Y1096D02*
X1891Y1096D01*
X1243Y1095D02*
X1250Y1095D01*
X1884Y1095D02*
X1891Y1095D01*
X1243Y1094D02*
X1250Y1094D01*
X1884Y1094D02*
X1891Y1094D01*
X1243Y1093D02*
X1250Y1093D01*
X1884Y1093D02*
X1891Y1093D01*
X1243Y1092D02*
X1250Y1092D01*
X1884Y1092D02*
X1891Y1092D01*
X1243Y1091D02*
X1250Y1091D01*
X1884Y1091D02*
X1891Y1091D01*
X1243Y1090D02*
X1250Y1090D01*
X1884Y1090D02*
X1891Y1090D01*
X1243Y1089D02*
X1250Y1089D01*
X1884Y1089D02*
X1891Y1089D01*
X1243Y1088D02*
X1250Y1088D01*
X1884Y1088D02*
X1891Y1088D01*
X1243Y1087D02*
X1250Y1087D01*
X1884Y1087D02*
X1891Y1087D01*
X1243Y1086D02*
X1250Y1086D01*
X1884Y1086D02*
X1891Y1086D01*
X1243Y1085D02*
X1250Y1085D01*
X1884Y1085D02*
X1891Y1085D01*
X1243Y1084D02*
X1250Y1084D01*
X1884Y1084D02*
X1891Y1084D01*
X1243Y1083D02*
X1250Y1083D01*
X1884Y1083D02*
X1891Y1083D01*
X1243Y1082D02*
X1250Y1082D01*
X1884Y1082D02*
X1891Y1082D01*
X1243Y1081D02*
X1250Y1081D01*
X1884Y1081D02*
X1891Y1081D01*
X1243Y1080D02*
X1250Y1080D01*
X1884Y1080D02*
X1891Y1080D01*
X1243Y1079D02*
X1250Y1079D01*
X1884Y1079D02*
X1891Y1079D01*
X1243Y1078D02*
X1250Y1078D01*
X1884Y1078D02*
X1891Y1078D01*
X1243Y1077D02*
X1250Y1077D01*
X1884Y1077D02*
X1891Y1077D01*
X1243Y1076D02*
X1250Y1076D01*
X1884Y1076D02*
X1891Y1076D01*
X1243Y1075D02*
X1250Y1075D01*
X1884Y1075D02*
X1891Y1075D01*
X1243Y1074D02*
X1250Y1074D01*
X1884Y1074D02*
X1891Y1074D01*
X1243Y1073D02*
X1250Y1073D01*
X1884Y1073D02*
X1891Y1073D01*
X1243Y1072D02*
X1250Y1072D01*
X1884Y1072D02*
X1891Y1072D01*
X1243Y1071D02*
X1250Y1071D01*
X1884Y1071D02*
X1891Y1071D01*
X1243Y1070D02*
X1250Y1070D01*
X1884Y1070D02*
X1891Y1070D01*
X1243Y1069D02*
X1250Y1069D01*
X1884Y1069D02*
X1891Y1069D01*
X1243Y1068D02*
X1250Y1068D01*
X1884Y1068D02*
X1891Y1068D01*
X1243Y1067D02*
X1250Y1067D01*
X1884Y1067D02*
X1891Y1067D01*
X1243Y1066D02*
X1250Y1066D01*
X1884Y1066D02*
X1891Y1066D01*
X1243Y1065D02*
X1250Y1065D01*
X1884Y1065D02*
X1891Y1065D01*
X1243Y1064D02*
X1250Y1064D01*
X1884Y1064D02*
X1891Y1064D01*
X1243Y1063D02*
X1250Y1063D01*
X1884Y1063D02*
X1891Y1063D01*
X1243Y1062D02*
X1250Y1062D01*
X1884Y1062D02*
X1891Y1062D01*
X1243Y1061D02*
X1250Y1061D01*
X1884Y1061D02*
X1891Y1061D01*
X1243Y1060D02*
X1250Y1060D01*
X1884Y1060D02*
X1891Y1060D01*
X1243Y1059D02*
X1250Y1059D01*
X1884Y1059D02*
X1891Y1059D01*
X1243Y1058D02*
X1250Y1058D01*
X1884Y1058D02*
X1891Y1058D01*
X1243Y1057D02*
X1250Y1057D01*
X1884Y1057D02*
X1891Y1057D01*
X1243Y1056D02*
X1250Y1056D01*
X1884Y1056D02*
X1891Y1056D01*
X1243Y1055D02*
X1250Y1055D01*
X1884Y1055D02*
X1891Y1055D01*
X1243Y1054D02*
X1250Y1054D01*
X1884Y1054D02*
X1891Y1054D01*
X1243Y1053D02*
X1250Y1053D01*
X1884Y1053D02*
X1891Y1053D01*
X1243Y1052D02*
X1250Y1052D01*
X1884Y1052D02*
X1891Y1052D01*
X1243Y1051D02*
X1250Y1051D01*
X1884Y1051D02*
X1891Y1051D01*
X1243Y1050D02*
X1250Y1050D01*
X1884Y1050D02*
X1891Y1050D01*
X1243Y1049D02*
X1250Y1049D01*
X1884Y1049D02*
X1891Y1049D01*
X1243Y1048D02*
X1250Y1048D01*
X1884Y1048D02*
X1891Y1048D01*
X1243Y1047D02*
X1250Y1047D01*
X1884Y1047D02*
X1891Y1047D01*
X1243Y1046D02*
X1250Y1046D01*
X1884Y1046D02*
X1891Y1046D01*
X1243Y1045D02*
X1250Y1045D01*
X1884Y1045D02*
X1891Y1045D01*
X1243Y1044D02*
X1250Y1044D01*
X1884Y1044D02*
X1891Y1044D01*
X1243Y1043D02*
X1250Y1043D01*
X1884Y1043D02*
X1891Y1043D01*
X1243Y1042D02*
X1250Y1042D01*
X1884Y1042D02*
X1891Y1042D01*
X1243Y1041D02*
X1250Y1041D01*
X1884Y1041D02*
X1891Y1041D01*
X1243Y1040D02*
X1250Y1040D01*
X1884Y1040D02*
X1891Y1040D01*
X1243Y1039D02*
X1250Y1039D01*
X1884Y1039D02*
X1891Y1039D01*
X1243Y1038D02*
X1250Y1038D01*
X1884Y1038D02*
X1891Y1038D01*
X1243Y1037D02*
X1250Y1037D01*
X1884Y1037D02*
X1891Y1037D01*
X1243Y1036D02*
X1250Y1036D01*
X1884Y1036D02*
X1891Y1036D01*
X1243Y1035D02*
X1250Y1035D01*
X1884Y1035D02*
X1891Y1035D01*
X1243Y1034D02*
X1250Y1034D01*
X1884Y1034D02*
X1891Y1034D01*
X1243Y1033D02*
X1250Y1033D01*
X1884Y1033D02*
X1891Y1033D01*
X1243Y1032D02*
X1250Y1032D01*
X1884Y1032D02*
X1891Y1032D01*
X1243Y1031D02*
X1250Y1031D01*
X1884Y1031D02*
X1891Y1031D01*
X1243Y1030D02*
X1250Y1030D01*
X1884Y1030D02*
X1891Y1030D01*
X1243Y1029D02*
X1250Y1029D01*
X1884Y1029D02*
X1891Y1029D01*
X1243Y1028D02*
X1250Y1028D01*
X1884Y1028D02*
X1891Y1028D01*
X1243Y1027D02*
X1250Y1027D01*
X1884Y1027D02*
X1891Y1027D01*
X1243Y1026D02*
X1250Y1026D01*
X1884Y1026D02*
X1891Y1026D01*
X1243Y1025D02*
X1250Y1025D01*
X1884Y1025D02*
X1891Y1025D01*
X1243Y1024D02*
X1250Y1024D01*
X1884Y1024D02*
X1891Y1024D01*
X1243Y1023D02*
X1250Y1023D01*
X1884Y1023D02*
X1891Y1023D01*
X1243Y1022D02*
X1250Y1022D01*
X1884Y1022D02*
X1891Y1022D01*
X1243Y1021D02*
X1250Y1021D01*
X1884Y1021D02*
X1891Y1021D01*
X1243Y1020D02*
X1250Y1020D01*
X1884Y1020D02*
X1891Y1020D01*
X1243Y1019D02*
X1250Y1019D01*
X1884Y1019D02*
X1891Y1019D01*
X1243Y1018D02*
X1250Y1018D01*
X1884Y1018D02*
X1891Y1018D01*
X1243Y1017D02*
X1250Y1017D01*
X1884Y1017D02*
X1891Y1017D01*
X1243Y1016D02*
X1250Y1016D01*
X1884Y1016D02*
X1891Y1016D01*
X1243Y1015D02*
X1250Y1015D01*
X1884Y1015D02*
X1891Y1015D01*
X1243Y1014D02*
X1250Y1014D01*
X1884Y1014D02*
X1891Y1014D01*
X1243Y1013D02*
X1250Y1013D01*
X1884Y1013D02*
X1891Y1013D01*
X1243Y1012D02*
X1250Y1012D01*
X1884Y1012D02*
X1891Y1012D01*
X1243Y1011D02*
X1250Y1011D01*
X1884Y1011D02*
X1891Y1011D01*
X1243Y1010D02*
X1250Y1010D01*
X1884Y1010D02*
X1891Y1010D01*
X1243Y1009D02*
X1250Y1009D01*
X1884Y1009D02*
X1891Y1009D01*
X1243Y1008D02*
X1250Y1008D01*
X1884Y1008D02*
X1891Y1008D01*
X1243Y1007D02*
X1250Y1007D01*
X1884Y1007D02*
X1891Y1007D01*
X1243Y1006D02*
X1250Y1006D01*
X1884Y1006D02*
X1891Y1006D01*
X1243Y1005D02*
X1250Y1005D01*
X1884Y1005D02*
X1891Y1005D01*
X1243Y1004D02*
X1250Y1004D01*
X1884Y1004D02*
X1891Y1004D01*
X1243Y1003D02*
X1250Y1003D01*
X1884Y1003D02*
X1891Y1003D01*
X1243Y1002D02*
X1250Y1002D01*
X1884Y1002D02*
X1891Y1002D01*
X1243Y1001D02*
X1250Y1001D01*
X1884Y1001D02*
X1891Y1001D01*
X1243Y1000D02*
X1250Y1000D01*
X1884Y1000D02*
X1891Y1000D01*
X1243Y999D02*
X1250Y999D01*
X1884Y999D02*
X1891Y999D01*
X1243Y998D02*
X1250Y998D01*
X1884Y998D02*
X1891Y998D01*
X1243Y997D02*
X1250Y997D01*
X1884Y997D02*
X1891Y997D01*
X1243Y996D02*
X1250Y996D01*
X1884Y996D02*
X1891Y996D01*
X1243Y995D02*
X1250Y995D01*
X1884Y995D02*
X1891Y995D01*
X1243Y994D02*
X1250Y994D01*
X1884Y994D02*
X1891Y994D01*
X1243Y993D02*
X1250Y993D01*
X1884Y993D02*
X1891Y993D01*
X1243Y992D02*
X1250Y992D01*
X1884Y992D02*
X1891Y992D01*
X1243Y991D02*
X1250Y991D01*
X1884Y991D02*
X1891Y991D01*
X1243Y990D02*
X1250Y990D01*
X1884Y990D02*
X1891Y990D01*
X1243Y989D02*
X1250Y989D01*
X1884Y989D02*
X1891Y989D01*
X1243Y988D02*
X1250Y988D01*
X1884Y988D02*
X1891Y988D01*
X1243Y987D02*
X1250Y987D01*
X1884Y987D02*
X1891Y987D01*
X1243Y986D02*
X1250Y986D01*
X1884Y986D02*
X1891Y986D01*
X1243Y985D02*
X1250Y985D01*
X1884Y985D02*
X1891Y985D01*
X1243Y984D02*
X1250Y984D01*
X1884Y984D02*
X1891Y984D01*
X1243Y983D02*
X1250Y983D01*
X1884Y983D02*
X1891Y983D01*
X1243Y982D02*
X1250Y982D01*
X1884Y982D02*
X1891Y982D01*
X1243Y981D02*
X1250Y981D01*
X1884Y981D02*
X1891Y981D01*
X1243Y980D02*
X1250Y980D01*
X1884Y980D02*
X1891Y980D01*
X1243Y979D02*
X1250Y979D01*
X1884Y979D02*
X1891Y979D01*
X1243Y978D02*
X1250Y978D01*
X1884Y978D02*
X1891Y978D01*
X1243Y977D02*
X1250Y977D01*
X1884Y977D02*
X1891Y977D01*
X1243Y976D02*
X1250Y976D01*
X1884Y976D02*
X1891Y976D01*
X1243Y975D02*
X1250Y975D01*
X1884Y975D02*
X1891Y975D01*
X1243Y974D02*
X1250Y974D01*
X1884Y974D02*
X1891Y974D01*
X1243Y973D02*
X1250Y973D01*
X1884Y973D02*
X1891Y973D01*
X1243Y972D02*
X1250Y972D01*
X1884Y972D02*
X1891Y972D01*
X1243Y971D02*
X1250Y971D01*
X1884Y971D02*
X1891Y971D01*
X1243Y970D02*
X1250Y970D01*
X1884Y970D02*
X1891Y970D01*
X1243Y969D02*
X1250Y969D01*
X1884Y969D02*
X1891Y969D01*
X1243Y968D02*
X1250Y968D01*
X1884Y968D02*
X1891Y968D01*
X1243Y967D02*
X1250Y967D01*
X1884Y967D02*
X1891Y967D01*
X1243Y966D02*
X1250Y966D01*
X1884Y966D02*
X1891Y966D01*
X1243Y965D02*
X1250Y965D01*
X1884Y965D02*
X1891Y965D01*
X1243Y964D02*
X1250Y964D01*
X1884Y964D02*
X1891Y964D01*
X1243Y963D02*
X1250Y963D01*
X1884Y963D02*
X1891Y963D01*
X1243Y962D02*
X1250Y962D01*
X1884Y962D02*
X1891Y962D01*
X1243Y961D02*
X1250Y961D01*
X1884Y961D02*
X1891Y961D01*
X1243Y960D02*
X1250Y960D01*
X1884Y960D02*
X1891Y960D01*
X1243Y959D02*
X1250Y959D01*
X1884Y959D02*
X1891Y959D01*
X1243Y958D02*
X1250Y958D01*
X1884Y958D02*
X1891Y958D01*
X1243Y957D02*
X1250Y957D01*
X1884Y957D02*
X1891Y957D01*
X1243Y956D02*
X1250Y956D01*
X1884Y956D02*
X1891Y956D01*
X1243Y955D02*
X1250Y955D01*
X1884Y955D02*
X1891Y955D01*
X1243Y954D02*
X1250Y954D01*
X1884Y954D02*
X1891Y954D01*
X1243Y953D02*
X1250Y953D01*
X1884Y953D02*
X1891Y953D01*
X1243Y952D02*
X1250Y952D01*
X1884Y952D02*
X1891Y952D01*
X1243Y951D02*
X1250Y951D01*
X1884Y951D02*
X1891Y951D01*
X1243Y950D02*
X1250Y950D01*
X1884Y950D02*
X1891Y950D01*
X1243Y949D02*
X1250Y949D01*
X1884Y949D02*
X1891Y949D01*
X1243Y948D02*
X1250Y948D01*
X1884Y948D02*
X1891Y948D01*
X1243Y947D02*
X1250Y947D01*
X1884Y947D02*
X1891Y947D01*
X1243Y946D02*
X1250Y946D01*
X1884Y946D02*
X1891Y946D01*
X1243Y945D02*
X1250Y945D01*
X1884Y945D02*
X1891Y945D01*
X1243Y944D02*
X1250Y944D01*
X1884Y944D02*
X1891Y944D01*
X1243Y943D02*
X1250Y943D01*
X1884Y943D02*
X1891Y943D01*
X1243Y942D02*
X1250Y942D01*
X1884Y942D02*
X1891Y942D01*
X1243Y941D02*
X1250Y941D01*
X1884Y941D02*
X1891Y941D01*
X1243Y940D02*
X1250Y940D01*
X1884Y940D02*
X1891Y940D01*
X1243Y939D02*
X1250Y939D01*
X1884Y939D02*
X1891Y939D01*
X1243Y938D02*
X1250Y938D01*
X1884Y938D02*
X1891Y938D01*
X1243Y937D02*
X1250Y937D01*
X1884Y937D02*
X1891Y937D01*
X1243Y936D02*
X1250Y936D01*
X1884Y936D02*
X1891Y936D01*
X1243Y935D02*
X1250Y935D01*
X1884Y935D02*
X1891Y935D01*
X1243Y934D02*
X1250Y934D01*
X1884Y934D02*
X1891Y934D01*
X1243Y933D02*
X1250Y933D01*
X1884Y933D02*
X1891Y933D01*
X1243Y932D02*
X1250Y932D01*
X1884Y932D02*
X1891Y932D01*
X1243Y931D02*
X1250Y931D01*
X1884Y931D02*
X1891Y931D01*
X1243Y930D02*
X1250Y930D01*
X1884Y930D02*
X1891Y930D01*
X1243Y929D02*
X1250Y929D01*
X1884Y929D02*
X1891Y929D01*
X1243Y928D02*
X1250Y928D01*
X1884Y928D02*
X1891Y928D01*
X1243Y927D02*
X1250Y927D01*
X1884Y927D02*
X1891Y927D01*
X1243Y926D02*
X1250Y926D01*
X1884Y926D02*
X1891Y926D01*
X1243Y925D02*
X1250Y925D01*
X1884Y925D02*
X1891Y925D01*
X1243Y924D02*
X1250Y924D01*
X1884Y924D02*
X1891Y924D01*
X1243Y923D02*
X1250Y923D01*
X1884Y923D02*
X1891Y923D01*
X1243Y922D02*
X1250Y922D01*
X1884Y922D02*
X1891Y922D01*
X1243Y921D02*
X1250Y921D01*
X1884Y921D02*
X1891Y921D01*
X1243Y920D02*
X1250Y920D01*
X1884Y920D02*
X1891Y920D01*
X1243Y919D02*
X1250Y919D01*
X1884Y919D02*
X1891Y919D01*
X1243Y918D02*
X1250Y918D01*
X1884Y918D02*
X1891Y918D01*
X1243Y917D02*
X1250Y917D01*
X1884Y917D02*
X1891Y917D01*
X1243Y916D02*
X1250Y916D01*
X1884Y916D02*
X1891Y916D01*
X1243Y915D02*
X1250Y915D01*
X1884Y915D02*
X1891Y915D01*
X1243Y914D02*
X1250Y914D01*
X1884Y914D02*
X1891Y914D01*
X1243Y913D02*
X1250Y913D01*
X1884Y913D02*
X1891Y913D01*
X1243Y912D02*
X1250Y912D01*
X1884Y912D02*
X1891Y912D01*
X1243Y911D02*
X1250Y911D01*
X1884Y911D02*
X1891Y911D01*
X1243Y910D02*
X1250Y910D01*
X1884Y910D02*
X1891Y910D01*
X1243Y909D02*
X1250Y909D01*
X1884Y909D02*
X1891Y909D01*
X1243Y908D02*
X1250Y908D01*
X1884Y908D02*
X1891Y908D01*
X1243Y907D02*
X1250Y907D01*
X1884Y907D02*
X1891Y907D01*
X1243Y906D02*
X1250Y906D01*
X1884Y906D02*
X1891Y906D01*
X1243Y905D02*
X1250Y905D01*
X1884Y905D02*
X1891Y905D01*
X1243Y904D02*
X1250Y904D01*
X1884Y904D02*
X1891Y904D01*
X1243Y903D02*
X1250Y903D01*
X1884Y903D02*
X1891Y903D01*
X1243Y902D02*
X1250Y902D01*
X1884Y902D02*
X1891Y902D01*
X1243Y901D02*
X1250Y901D01*
X1884Y901D02*
X1891Y901D01*
X1243Y900D02*
X1250Y900D01*
X1884Y900D02*
X1891Y900D01*
X1243Y899D02*
X1250Y899D01*
X1884Y899D02*
X1891Y899D01*
X1243Y898D02*
X1250Y898D01*
X1884Y898D02*
X1891Y898D01*
X1243Y897D02*
X1250Y897D01*
X1884Y897D02*
X1891Y897D01*
X1243Y896D02*
X1250Y896D01*
X1884Y896D02*
X1891Y896D01*
X1243Y895D02*
X1250Y895D01*
X1884Y895D02*
X1891Y895D01*
X1243Y894D02*
X1250Y894D01*
X1884Y894D02*
X1891Y894D01*
X1243Y893D02*
X1250Y893D01*
X1884Y893D02*
X1891Y893D01*
X1243Y892D02*
X1250Y892D01*
X1884Y892D02*
X1891Y892D01*
X1243Y891D02*
X1250Y891D01*
X1884Y891D02*
X1891Y891D01*
X1243Y890D02*
X1250Y890D01*
X1884Y890D02*
X1891Y890D01*
X1243Y889D02*
X1250Y889D01*
X1884Y889D02*
X1891Y889D01*
X1243Y888D02*
X1250Y888D01*
X1884Y888D02*
X1891Y888D01*
X1243Y887D02*
X1250Y887D01*
X1884Y887D02*
X1891Y887D01*
X1243Y886D02*
X1250Y886D01*
X1884Y886D02*
X1891Y886D01*
X1243Y885D02*
X1250Y885D01*
X1884Y885D02*
X1891Y885D01*
X1243Y884D02*
X1250Y884D01*
X1884Y884D02*
X1891Y884D01*
X1243Y883D02*
X1250Y883D01*
X1884Y883D02*
X1891Y883D01*
X1243Y882D02*
X1250Y882D01*
X1884Y882D02*
X1891Y882D01*
X1243Y881D02*
X1250Y881D01*
X1884Y881D02*
X1891Y881D01*
X1243Y880D02*
X1250Y880D01*
X1884Y880D02*
X1891Y880D01*
X1243Y879D02*
X1250Y879D01*
X1884Y879D02*
X1891Y879D01*
X1243Y878D02*
X1250Y878D01*
X1884Y878D02*
X1891Y878D01*
X1243Y877D02*
X1250Y877D01*
X1884Y877D02*
X1891Y877D01*
X1243Y876D02*
X1250Y876D01*
X1884Y876D02*
X1891Y876D01*
X1243Y875D02*
X1250Y875D01*
X1884Y875D02*
X1891Y875D01*
X1243Y874D02*
X1250Y874D01*
X1884Y874D02*
X1891Y874D01*
X1243Y873D02*
X1250Y873D01*
X1884Y873D02*
X1891Y873D01*
X1243Y872D02*
X1250Y872D01*
X1884Y872D02*
X1891Y872D01*
X1243Y871D02*
X1250Y871D01*
X1884Y871D02*
X1891Y871D01*
X1243Y870D02*
X1250Y870D01*
X1884Y870D02*
X1891Y870D01*
X1243Y869D02*
X1250Y869D01*
X1884Y869D02*
X1891Y869D01*
X1243Y868D02*
X1250Y868D01*
X1884Y868D02*
X1891Y868D01*
X1243Y867D02*
X1250Y867D01*
X1884Y867D02*
X1891Y867D01*
X1243Y866D02*
X1250Y866D01*
X1884Y866D02*
X1891Y866D01*
X1243Y865D02*
X1250Y865D01*
X1884Y865D02*
X1891Y865D01*
X1243Y864D02*
X1250Y864D01*
X1884Y864D02*
X1891Y864D01*
X1243Y863D02*
X1250Y863D01*
X1884Y863D02*
X1891Y863D01*
X1243Y862D02*
X1250Y862D01*
X1884Y862D02*
X1891Y862D01*
X1243Y861D02*
X1250Y861D01*
X1884Y861D02*
X1891Y861D01*
X1243Y860D02*
X1250Y860D01*
X1884Y860D02*
X1891Y860D01*
X1243Y859D02*
X1250Y859D01*
X1884Y859D02*
X1891Y859D01*
X1243Y858D02*
X1250Y858D01*
X1884Y858D02*
X1891Y858D01*
X1243Y857D02*
X1250Y857D01*
X1884Y857D02*
X1891Y857D01*
X1243Y856D02*
X1250Y856D01*
X1884Y856D02*
X1891Y856D01*
X1243Y855D02*
X1250Y855D01*
X1884Y855D02*
X1891Y855D01*
X1243Y854D02*
X1250Y854D01*
X1884Y854D02*
X1891Y854D01*
X1243Y853D02*
X1250Y853D01*
X1884Y853D02*
X1891Y853D01*
X1243Y852D02*
X1250Y852D01*
X1884Y852D02*
X1891Y852D01*
X1243Y851D02*
X1250Y851D01*
X1884Y851D02*
X1891Y851D01*
X1243Y850D02*
X1250Y850D01*
X1884Y850D02*
X1891Y850D01*
X1243Y849D02*
X1250Y849D01*
X1884Y849D02*
X1891Y849D01*
X1243Y848D02*
X1250Y848D01*
X1884Y848D02*
X1891Y848D01*
X1243Y847D02*
X1250Y847D01*
X1884Y847D02*
X1891Y847D01*
X1243Y846D02*
X1250Y846D01*
X1884Y846D02*
X1891Y846D01*
X1243Y845D02*
X1250Y845D01*
X1884Y845D02*
X1891Y845D01*
X1243Y844D02*
X1250Y844D01*
X1884Y844D02*
X1891Y844D01*
X1243Y843D02*
X1250Y843D01*
X1884Y843D02*
X1891Y843D01*
X1243Y842D02*
X1250Y842D01*
X1884Y842D02*
X1891Y842D01*
X1243Y841D02*
X1250Y841D01*
X1884Y841D02*
X1891Y841D01*
X1243Y840D02*
X1250Y840D01*
X1884Y840D02*
X1891Y840D01*
X1243Y839D02*
X1250Y839D01*
X1884Y839D02*
X1891Y839D01*
X1243Y838D02*
X1250Y838D01*
X1884Y838D02*
X1891Y838D01*
X1243Y837D02*
X1250Y837D01*
X1884Y837D02*
X1891Y837D01*
X1243Y836D02*
X1250Y836D01*
X1884Y836D02*
X1891Y836D01*
X1243Y835D02*
X1250Y835D01*
X1884Y835D02*
X1891Y835D01*
X1243Y834D02*
X1250Y834D01*
X1884Y834D02*
X1891Y834D01*
X1243Y833D02*
X1250Y833D01*
X1884Y833D02*
X1891Y833D01*
X1243Y832D02*
X1250Y832D01*
X1884Y832D02*
X1891Y832D01*
X1243Y831D02*
X1250Y831D01*
X1884Y831D02*
X1891Y831D01*
X1243Y830D02*
X1250Y830D01*
X1884Y830D02*
X1891Y830D01*
X1243Y829D02*
X1250Y829D01*
X1884Y829D02*
X1891Y829D01*
X1243Y828D02*
X1250Y828D01*
X1884Y828D02*
X1891Y828D01*
X1243Y827D02*
X1250Y827D01*
X1884Y827D02*
X1891Y827D01*
X1243Y826D02*
X1250Y826D01*
X1884Y826D02*
X1891Y826D01*
X1243Y825D02*
X1250Y825D01*
X1884Y825D02*
X1891Y825D01*
X1243Y824D02*
X1250Y824D01*
X1884Y824D02*
X1891Y824D01*
X1243Y823D02*
X1250Y823D01*
X1884Y823D02*
X1891Y823D01*
X1243Y822D02*
X1250Y822D01*
X1884Y822D02*
X1891Y822D01*
X1243Y821D02*
X1250Y821D01*
X1884Y821D02*
X1891Y821D01*
X1243Y820D02*
X1250Y820D01*
X1884Y820D02*
X1891Y820D01*
X1243Y819D02*
X1250Y819D01*
X1884Y819D02*
X1891Y819D01*
X1243Y818D02*
X1250Y818D01*
X1884Y818D02*
X1891Y818D01*
X1243Y817D02*
X1250Y817D01*
X1884Y817D02*
X1891Y817D01*
X1243Y816D02*
X1250Y816D01*
X1884Y816D02*
X1891Y816D01*
X1243Y815D02*
X1250Y815D01*
X1884Y815D02*
X1891Y815D01*
X1243Y814D02*
X1250Y814D01*
X1884Y814D02*
X1891Y814D01*
X1243Y813D02*
X1250Y813D01*
X1884Y813D02*
X1891Y813D01*
X1243Y812D02*
X1250Y812D01*
X1884Y812D02*
X1891Y812D01*
X1243Y811D02*
X1250Y811D01*
X1884Y811D02*
X1891Y811D01*
X1243Y810D02*
X1250Y810D01*
X1884Y810D02*
X1891Y810D01*
X1243Y809D02*
X1250Y809D01*
X1884Y809D02*
X1891Y809D01*
X1243Y808D02*
X1250Y808D01*
X1884Y808D02*
X1891Y808D01*
X1243Y807D02*
X1250Y807D01*
X1884Y807D02*
X1891Y807D01*
X1243Y806D02*
X1250Y806D01*
X1884Y806D02*
X1891Y806D01*
X1243Y805D02*
X1250Y805D01*
X1884Y805D02*
X1891Y805D01*
X1243Y804D02*
X1250Y804D01*
X1884Y804D02*
X1891Y804D01*
X1243Y803D02*
X1250Y803D01*
X1884Y803D02*
X1891Y803D01*
X1243Y802D02*
X1250Y802D01*
X1884Y802D02*
X1891Y802D01*
X1243Y801D02*
X1250Y801D01*
X1884Y801D02*
X1891Y801D01*
X1243Y800D02*
X1250Y800D01*
X1884Y800D02*
X1891Y800D01*
X1243Y799D02*
X1250Y799D01*
X1884Y799D02*
X1891Y799D01*
X1243Y798D02*
X1250Y798D01*
X1884Y798D02*
X1891Y798D01*
X1243Y797D02*
X1250Y797D01*
X1884Y797D02*
X1891Y797D01*
X1243Y796D02*
X1250Y796D01*
X1884Y796D02*
X1891Y796D01*
X1243Y795D02*
X1250Y795D01*
X1884Y795D02*
X1891Y795D01*
X1243Y794D02*
X1250Y794D01*
X1884Y794D02*
X1891Y794D01*
X1243Y793D02*
X1250Y793D01*
X1884Y793D02*
X1891Y793D01*
X1243Y792D02*
X1250Y792D01*
X1884Y792D02*
X1891Y792D01*
X1243Y791D02*
X1250Y791D01*
X1884Y791D02*
X1891Y791D01*
X1243Y790D02*
X1250Y790D01*
X1884Y790D02*
X1891Y790D01*
X1243Y789D02*
X1250Y789D01*
X1884Y789D02*
X1891Y789D01*
X1243Y788D02*
X1250Y788D01*
X1884Y788D02*
X1891Y788D01*
X1243Y787D02*
X1250Y787D01*
X1884Y787D02*
X1891Y787D01*
X1243Y786D02*
X1250Y786D01*
X1884Y786D02*
X1891Y786D01*
X1243Y785D02*
X1250Y785D01*
X1884Y785D02*
X1891Y785D01*
X1243Y784D02*
X1250Y784D01*
X1884Y784D02*
X1891Y784D01*
X1243Y783D02*
X1250Y783D01*
X1884Y783D02*
X1891Y783D01*
X1243Y782D02*
X1250Y782D01*
X1884Y782D02*
X1891Y782D01*
X1243Y781D02*
X1250Y781D01*
X1884Y781D02*
X1891Y781D01*
X1243Y780D02*
X1250Y780D01*
X1884Y780D02*
X1891Y780D01*
X1243Y779D02*
X1250Y779D01*
X1884Y779D02*
X1891Y779D01*
X1243Y778D02*
X1250Y778D01*
X1884Y778D02*
X1891Y778D01*
X1243Y777D02*
X1250Y777D01*
X1884Y777D02*
X1891Y777D01*
X1243Y776D02*
X1250Y776D01*
X1884Y776D02*
X1891Y776D01*
X1243Y775D02*
X1250Y775D01*
X1884Y775D02*
X1891Y775D01*
X1243Y774D02*
X1250Y774D01*
X1884Y774D02*
X1891Y774D01*
X1243Y773D02*
X1250Y773D01*
X1884Y773D02*
X1891Y773D01*
X1243Y772D02*
X1250Y772D01*
X1884Y772D02*
X1891Y772D01*
X1243Y771D02*
X1250Y771D01*
X1884Y771D02*
X1891Y771D01*
X1243Y770D02*
X1250Y770D01*
X1884Y770D02*
X1891Y770D01*
X1243Y769D02*
X1250Y769D01*
X1884Y769D02*
X1891Y769D01*
X1243Y768D02*
X1250Y768D01*
X1884Y768D02*
X1891Y768D01*
X1243Y767D02*
X1250Y767D01*
X1884Y767D02*
X1891Y767D01*
X1243Y766D02*
X1250Y766D01*
X1884Y766D02*
X1891Y766D01*
X1243Y765D02*
X1250Y765D01*
X1884Y765D02*
X1891Y765D01*
X1243Y764D02*
X1250Y764D01*
X1884Y764D02*
X1891Y764D01*
X1243Y763D02*
X1250Y763D01*
X1884Y763D02*
X1891Y763D01*
X1243Y762D02*
X1250Y762D01*
X1884Y762D02*
X1891Y762D01*
X1243Y761D02*
X1250Y761D01*
X1884Y761D02*
X1891Y761D01*
X1243Y760D02*
X1250Y760D01*
X1884Y760D02*
X1891Y760D01*
X1243Y759D02*
X1250Y759D01*
X1884Y759D02*
X1891Y759D01*
X1243Y758D02*
X1250Y758D01*
X1884Y758D02*
X1891Y758D01*
X1243Y757D02*
X1250Y757D01*
X1884Y757D02*
X1891Y757D01*
X1243Y756D02*
X1250Y756D01*
X1884Y756D02*
X1891Y756D01*
X1243Y755D02*
X1250Y755D01*
X1884Y755D02*
X1891Y755D01*
X1243Y754D02*
X1250Y754D01*
X1884Y754D02*
X1891Y754D01*
X1243Y753D02*
X1250Y753D01*
X1884Y753D02*
X1891Y753D01*
X1243Y752D02*
X1250Y752D01*
X1884Y752D02*
X1891Y752D01*
X1243Y751D02*
X1250Y751D01*
X1884Y751D02*
X1891Y751D01*
X1243Y750D02*
X1250Y750D01*
X1884Y750D02*
X1891Y750D01*
X1243Y749D02*
X1250Y749D01*
X1884Y749D02*
X1891Y749D01*
X1243Y748D02*
X1250Y748D01*
X1884Y748D02*
X1891Y748D01*
X1243Y747D02*
X1250Y747D01*
X1884Y747D02*
X1891Y747D01*
X1243Y746D02*
X1250Y746D01*
X1884Y746D02*
X1891Y746D01*
X1243Y745D02*
X1250Y745D01*
X1884Y745D02*
X1891Y745D01*
X1243Y744D02*
X1250Y744D01*
X1884Y744D02*
X1891Y744D01*
X1243Y743D02*
X1250Y743D01*
X1884Y743D02*
X1891Y743D01*
X1243Y742D02*
X1250Y742D01*
X1884Y742D02*
X1891Y742D01*
X1243Y741D02*
X1250Y741D01*
X1884Y741D02*
X1891Y741D01*
X1243Y740D02*
X1250Y740D01*
X1884Y740D02*
X1891Y740D01*
X1243Y739D02*
X1250Y739D01*
X1884Y739D02*
X1891Y739D01*
X1243Y738D02*
X1250Y738D01*
X1884Y738D02*
X1891Y738D01*
X1243Y737D02*
X1250Y737D01*
X1884Y737D02*
X1891Y737D01*
X1243Y736D02*
X1250Y736D01*
X1884Y736D02*
X1891Y736D01*
X1243Y735D02*
X1250Y735D01*
X1884Y735D02*
X1891Y735D01*
X1243Y734D02*
X1250Y734D01*
X1884Y734D02*
X1891Y734D01*
X1243Y733D02*
X1250Y733D01*
X1884Y733D02*
X1891Y733D01*
X1243Y732D02*
X1250Y732D01*
X1884Y732D02*
X1891Y732D01*
X1243Y731D02*
X1250Y731D01*
X1884Y731D02*
X1891Y731D01*
X1243Y730D02*
X1250Y730D01*
X1884Y730D02*
X1891Y730D01*
X1243Y729D02*
X1250Y729D01*
X1884Y729D02*
X1891Y729D01*
X1243Y728D02*
X1250Y728D01*
X1884Y728D02*
X1891Y728D01*
X1243Y727D02*
X1250Y727D01*
X1884Y727D02*
X1891Y727D01*
X1243Y726D02*
X1250Y726D01*
X1884Y726D02*
X1891Y726D01*
X1243Y725D02*
X1250Y725D01*
X1884Y725D02*
X1891Y725D01*
X1243Y724D02*
X1250Y724D01*
X1884Y724D02*
X1891Y724D01*
X1243Y723D02*
X1250Y723D01*
X1884Y723D02*
X1891Y723D01*
X1243Y722D02*
X1250Y722D01*
X1884Y722D02*
X1891Y722D01*
X1243Y721D02*
X1250Y721D01*
X1884Y721D02*
X1891Y721D01*
X1243Y720D02*
X1250Y720D01*
X1884Y720D02*
X1891Y720D01*
X1243Y719D02*
X1250Y719D01*
X1884Y719D02*
X1891Y719D01*
X1243Y718D02*
X1250Y718D01*
X1884Y718D02*
X1891Y718D01*
X1243Y717D02*
X1250Y717D01*
X1884Y717D02*
X1891Y717D01*
X1243Y716D02*
X1250Y716D01*
X1884Y716D02*
X1891Y716D01*
X1243Y715D02*
X1250Y715D01*
X1884Y715D02*
X1891Y715D01*
X1243Y714D02*
X1250Y714D01*
X1884Y714D02*
X1891Y714D01*
X1243Y713D02*
X1250Y713D01*
X1884Y713D02*
X1891Y713D01*
X1243Y712D02*
X1250Y712D01*
X1884Y712D02*
X1891Y712D01*
X1243Y711D02*
X1250Y711D01*
X1884Y711D02*
X1891Y711D01*
X1243Y710D02*
X1250Y710D01*
X1884Y710D02*
X1891Y710D01*
X1243Y709D02*
X1250Y709D01*
X1884Y709D02*
X1891Y709D01*
X1243Y708D02*
X1250Y708D01*
X1884Y708D02*
X1891Y708D01*
X1243Y707D02*
X1250Y707D01*
X1884Y707D02*
X1891Y707D01*
X1243Y706D02*
X1250Y706D01*
X1884Y706D02*
X1891Y706D01*
X1243Y705D02*
X1250Y705D01*
X1884Y705D02*
X1891Y705D01*
X1243Y704D02*
X1250Y704D01*
X1884Y704D02*
X1891Y704D01*
X1243Y703D02*
X1250Y703D01*
X1884Y703D02*
X1891Y703D01*
X1243Y702D02*
X1250Y702D01*
X1884Y702D02*
X1891Y702D01*
X1243Y701D02*
X1250Y701D01*
X1884Y701D02*
X1891Y701D01*
X1243Y700D02*
X1250Y700D01*
X1884Y700D02*
X1891Y700D01*
X1243Y699D02*
X1250Y699D01*
X1884Y699D02*
X1891Y699D01*
X1243Y698D02*
X1250Y698D01*
X1884Y698D02*
X1891Y698D01*
X1243Y697D02*
X1250Y697D01*
X1884Y697D02*
X1891Y697D01*
X1243Y696D02*
X1250Y696D01*
X1884Y696D02*
X1891Y696D01*
X1243Y695D02*
X1250Y695D01*
X1884Y695D02*
X1891Y695D01*
X1242Y694D02*
X1250Y694D01*
X1884Y694D02*
X1891Y694D01*
X1243Y693D02*
X1250Y693D01*
X1884Y693D02*
X1891Y693D01*
X1243Y692D02*
X1250Y692D01*
X1884Y692D02*
X1891Y692D01*
X1243Y691D02*
X1250Y691D01*
X1884Y691D02*
X1891Y691D01*
X1243Y690D02*
X1250Y690D01*
X1884Y690D02*
X1891Y690D01*
X1243Y689D02*
X1250Y689D01*
X1884Y689D02*
X1891Y689D01*
X1243Y688D02*
X1250Y688D01*
X1884Y688D02*
X1891Y688D01*
X1243Y687D02*
X1250Y687D01*
X1884Y687D02*
X1891Y687D01*
X1243Y686D02*
X1250Y686D01*
X1884Y686D02*
X1891Y686D01*
X1243Y685D02*
X1250Y685D01*
X1884Y685D02*
X1891Y685D01*
X1243Y684D02*
X1250Y684D01*
X1884Y684D02*
X1891Y684D01*
X1243Y683D02*
X1250Y683D01*
X1884Y683D02*
X1891Y683D01*
X1243Y682D02*
X1250Y682D01*
X1884Y682D02*
X1891Y682D01*
X1243Y681D02*
X1250Y681D01*
X1884Y681D02*
X1891Y681D01*
X1243Y680D02*
X1250Y680D01*
X1884Y680D02*
X1891Y680D01*
X1243Y679D02*
X1250Y679D01*
X1884Y679D02*
X1891Y679D01*
X1243Y678D02*
X1250Y678D01*
X1884Y678D02*
X1891Y678D01*
X1243Y677D02*
X1250Y677D01*
X1883Y677D02*
X1890Y677D01*
X1244Y676D02*
X1251Y676D01*
X1883Y676D02*
X1890Y676D01*
X1244Y675D02*
X1251Y675D01*
X1883Y675D02*
X1890Y675D01*
X1244Y674D02*
X1251Y674D01*
X1883Y674D02*
X1890Y674D01*
X1244Y673D02*
X1251Y673D01*
X1883Y673D02*
X1890Y673D01*
X1244Y672D02*
X1251Y672D01*
X1883Y672D02*
X1890Y672D01*
X1244Y671D02*
X1252Y671D01*
X1882Y671D02*
X1889Y671D01*
X1245Y670D02*
X1252Y670D01*
X1882Y670D02*
X1889Y670D01*
X1245Y669D02*
X1252Y669D01*
X1882Y669D02*
X1889Y669D01*
X1245Y668D02*
X1252Y668D01*
X1882Y668D02*
X1889Y668D01*
X1245Y667D02*
X1252Y667D01*
X1881Y667D02*
X1888Y667D01*
X1246Y666D02*
X1253Y666D01*
X1881Y666D02*
X1888Y666D01*
X1246Y665D02*
X1253Y665D01*
X1881Y665D02*
X1888Y665D01*
X1246Y664D02*
X1253Y664D01*
X1881Y664D02*
X1888Y664D01*
X1246Y663D02*
X1254Y663D01*
X1880Y663D02*
X1887Y663D01*
X1247Y662D02*
X1254Y662D01*
X1880Y662D02*
X1887Y662D01*
X1247Y661D02*
X1254Y661D01*
X1880Y661D02*
X1887Y661D01*
X1247Y660D02*
X1255Y660D01*
X1879Y660D02*
X1887Y660D01*
X1248Y659D02*
X1255Y659D01*
X1879Y659D02*
X1886Y659D01*
X1248Y658D02*
X1255Y658D01*
X1878Y658D02*
X1886Y658D01*
X1248Y657D02*
X1256Y657D01*
X1878Y657D02*
X1885Y657D01*
X1249Y656D02*
X1256Y656D01*
X1878Y656D02*
X1885Y656D01*
X1249Y655D02*
X1257Y655D01*
X1877Y655D02*
X1885Y655D01*
X1249Y654D02*
X1257Y654D01*
X1877Y654D02*
X1884Y654D01*
X1250Y653D02*
X1258Y653D01*
X1876Y653D02*
X1884Y653D01*
X1250Y652D02*
X1258Y652D01*
X1876Y652D02*
X1884Y652D01*
X1251Y651D02*
X1258Y651D01*
X1875Y651D02*
X1883Y651D01*
X1251Y650D02*
X1259Y650D01*
X1875Y650D02*
X1883Y650D01*
X1252Y649D02*
X1259Y649D01*
X1875Y649D02*
X1882Y649D01*
X1252Y648D02*
X1260Y648D01*
X1874Y648D02*
X1882Y648D01*
X1253Y647D02*
X1260Y647D01*
X1873Y647D02*
X1881Y647D01*
X1253Y646D02*
X1261Y646D01*
X1873Y646D02*
X1881Y646D01*
X1254Y645D02*
X1262Y645D01*
X1872Y645D02*
X1880Y645D01*
X1254Y644D02*
X1262Y644D01*
X1872Y644D02*
X1880Y644D01*
X1255Y643D02*
X1263Y643D01*
X1871Y643D02*
X1879Y643D01*
X1255Y642D02*
X1263Y642D01*
X1871Y642D02*
X1879Y642D01*
X1256Y641D02*
X1264Y641D01*
X1870Y641D02*
X1878Y641D01*
X1256Y640D02*
X1265Y640D01*
X1869Y640D02*
X1877Y640D01*
X1257Y639D02*
X1265Y639D01*
X1869Y639D02*
X1877Y639D01*
X1258Y638D02*
X1266Y638D01*
X1868Y638D02*
X1876Y638D01*
X1258Y637D02*
X1267Y637D01*
X1867Y637D02*
X1876Y637D01*
X1259Y636D02*
X1267Y636D01*
X1866Y636D02*
X1875Y636D01*
X1259Y635D02*
X1268Y635D01*
X1866Y635D02*
X1874Y635D01*
X1260Y634D02*
X1269Y634D01*
X1865Y634D02*
X1874Y634D01*
X1261Y633D02*
X1270Y633D01*
X1864Y633D02*
X1873Y633D01*
X1262Y632D02*
X1271Y632D01*
X1863Y632D02*
X1872Y632D01*
X1262Y631D02*
X1271Y631D01*
X1862Y631D02*
X1872Y631D01*
X1263Y630D02*
X1272Y630D01*
X1862Y630D02*
X1871Y630D01*
X1264Y629D02*
X1273Y629D01*
X1861Y629D02*
X1870Y629D01*
X1265Y628D02*
X1274Y628D01*
X1860Y628D02*
X1869Y628D01*
X1265Y627D02*
X1275Y627D01*
X1859Y627D02*
X1869Y627D01*
X1266Y626D02*
X1276Y626D01*
X1858Y626D02*
X1868Y626D01*
X1267Y625D02*
X1277Y625D01*
X1857Y625D02*
X1867Y625D01*
X1268Y624D02*
X1278Y624D01*
X1856Y624D02*
X1866Y624D01*
X1269Y623D02*
X1279Y623D01*
X1855Y623D02*
X1865Y623D01*
X1270Y622D02*
X1280Y622D01*
X1854Y622D02*
X1864Y622D01*
X1271Y621D02*
X1281Y621D01*
X1852Y621D02*
X1863Y621D01*
X1272Y620D02*
X1282Y620D01*
X1851Y620D02*
X1862Y620D01*
X1273Y619D02*
X1284Y619D01*
X1850Y619D02*
X1861Y619D01*
X1274Y618D02*
X1285Y618D01*
X1849Y618D02*
X1860Y618D01*
X1275Y617D02*
X1286Y617D01*
X1848Y617D02*
X1859Y617D01*
X1276Y616D02*
X1288Y616D01*
X1846Y616D02*
X1858Y616D01*
X1277Y615D02*
X1289Y615D01*
X1845Y615D02*
X1857Y615D01*
X1278Y614D02*
X1290Y614D01*
X1843Y614D02*
X1856Y614D01*
X1279Y613D02*
X1292Y613D01*
X1842Y613D02*
X1855Y613D01*
X1281Y612D02*
X1294Y612D01*
X1840Y612D02*
X1853Y612D01*
X1282Y611D02*
X1295Y611D01*
X1839Y611D02*
X1852Y611D01*
X1283Y610D02*
X1297Y610D01*
X1837Y610D02*
X1850Y610D01*
X1285Y609D02*
X1299Y609D01*
X1835Y609D02*
X1849Y609D01*
X1286Y608D02*
X1301Y608D01*
X1833Y608D02*
X1848Y608D01*
X1288Y607D02*
X1303Y607D01*
X1831Y607D02*
X1846Y607D01*
X1289Y606D02*
X1305Y606D01*
X1829Y606D02*
X1845Y606D01*
X1291Y605D02*
X1307Y605D01*
X1826Y605D02*
X1843Y605D01*
X1293Y604D02*
X1310Y604D01*
X1824Y604D02*
X1841Y604D01*
X1294Y603D02*
X1313Y603D01*
X1821Y603D02*
X1839Y603D01*
X1296Y602D02*
X1316Y602D01*
X1818Y602D02*
X1838Y602D01*
X1298Y601D02*
X1320Y601D01*
X1814Y601D02*
X1836Y601D01*
X1300Y600D02*
X1325Y600D01*
X1809Y600D02*
X1834Y600D01*
X1302Y599D02*
X1332Y599D01*
X1802Y599D02*
X1831Y599D01*
X1305Y598D02*
X1829Y598D01*
X1307Y597D02*
X1826Y597D01*
X1310Y596D02*
X1824Y596D01*
X1313Y595D02*
X1821Y595D01*
X1317Y594D02*
X1817Y594D01*
X1321Y593D02*
X1813Y593D01*
X1326Y592D02*
X1808Y592D01*
X1333Y591D02*
X1801Y591D01*
X1919Y582D02*
X1971Y582D01*
X1919Y581D02*
X1971Y581D01*
X1918Y580D02*
X1971Y580D01*
X1918Y579D02*
X1971Y579D01*
X1918Y578D02*
X1971Y578D01*
X1919Y577D02*
X1971Y577D01*
X1920Y576D02*
X1971Y576D01*
X1939Y575D02*
X1945Y575D01*
X1965Y575D02*
X1971Y575D01*
X1939Y574D02*
X1945Y574D01*
X1965Y574D02*
X1971Y574D01*
X1939Y573D02*
X1945Y573D01*
X1965Y573D02*
X1971Y573D01*
X1939Y572D02*
X1945Y572D01*
X1965Y572D02*
X1971Y572D01*
X1939Y571D02*
X1945Y571D01*
X1965Y571D02*
X1971Y571D01*
X1939Y570D02*
X1945Y570D01*
X1965Y570D02*
X1971Y570D01*
X1939Y569D02*
X1945Y569D01*
X1965Y569D02*
X1971Y569D01*
X1939Y568D02*
X1945Y568D01*
X1965Y568D02*
X1971Y568D01*
X1939Y567D02*
X1945Y567D01*
X1965Y567D02*
X1971Y567D01*
X1939Y566D02*
X1945Y566D01*
X1965Y566D02*
X1971Y566D01*
X1939Y565D02*
X1945Y565D01*
X1965Y565D02*
X1971Y565D01*
X1939Y564D02*
X1945Y564D01*
X1965Y564D02*
X1971Y564D01*
X1939Y563D02*
X1945Y563D01*
X1965Y563D02*
X1971Y563D01*
X1939Y562D02*
X1945Y562D01*
X1965Y562D02*
X1971Y562D01*
X1939Y561D02*
X1945Y561D01*
X1965Y561D02*
X1971Y561D01*
X1939Y560D02*
X1945Y560D01*
X1965Y560D02*
X1971Y560D01*
X1939Y559D02*
X1945Y559D01*
X1965Y559D02*
X1971Y559D01*
X1939Y558D02*
X1945Y558D01*
X1965Y558D02*
X1971Y558D01*
X1939Y557D02*
X1945Y557D01*
X1965Y557D02*
X1971Y557D01*
X1939Y556D02*
X1946Y556D01*
X1964Y556D02*
X1971Y556D01*
X1939Y555D02*
X1970Y555D01*
X1940Y554D02*
X1970Y554D01*
X1940Y553D02*
X1969Y553D01*
X1941Y552D02*
X1969Y552D01*
X1942Y551D02*
X1968Y551D01*
X1943Y550D02*
X1967Y550D01*
X1945Y549D02*
X1965Y549D01*
X1925Y532D02*
X1935Y532D01*
X1923Y531D02*
X1937Y531D01*
X1921Y530D02*
X1938Y530D01*
X1921Y529D02*
X1939Y529D01*
X1920Y528D02*
X1940Y528D01*
X1919Y527D02*
X1941Y527D01*
X1919Y526D02*
X1941Y526D01*
X1918Y525D02*
X1925Y525D01*
X1934Y525D02*
X1941Y525D01*
X1952Y525D02*
X1955Y525D01*
X1918Y524D02*
X1925Y524D01*
X1935Y524D02*
X1942Y524D01*
X1951Y524D02*
X1956Y524D01*
X1918Y523D02*
X1924Y523D01*
X1936Y523D02*
X1942Y523D01*
X1951Y523D02*
X1956Y523D01*
X1918Y522D02*
X1924Y522D01*
X1936Y522D02*
X1942Y522D01*
X1950Y522D02*
X1956Y522D01*
X1918Y521D02*
X1924Y521D01*
X1936Y521D02*
X1942Y521D01*
X1950Y521D02*
X1956Y521D01*
X1918Y520D02*
X1924Y520D01*
X1936Y520D02*
X1942Y520D01*
X1950Y520D02*
X1956Y520D01*
X1918Y519D02*
X1924Y519D01*
X1936Y519D02*
X1942Y519D01*
X1950Y519D02*
X1956Y519D01*
X1918Y518D02*
X1924Y518D01*
X1936Y518D02*
X1942Y518D01*
X1950Y518D02*
X1956Y518D01*
X1918Y517D02*
X1924Y517D01*
X1936Y517D02*
X1942Y517D01*
X1950Y517D02*
X1956Y517D01*
X1918Y516D02*
X1924Y516D01*
X1936Y516D02*
X1942Y516D01*
X1950Y516D02*
X1956Y516D01*
X1918Y515D02*
X1924Y515D01*
X1936Y515D02*
X1942Y515D01*
X1950Y515D02*
X1956Y515D01*
X1918Y514D02*
X1924Y514D01*
X1936Y514D02*
X1942Y514D01*
X1950Y514D02*
X1956Y514D01*
X1918Y513D02*
X1924Y513D01*
X1936Y513D02*
X1942Y513D01*
X1950Y513D02*
X1956Y513D01*
X1918Y512D02*
X1925Y512D01*
X1936Y512D02*
X1942Y512D01*
X1950Y512D02*
X1956Y512D01*
X1918Y511D02*
X1925Y511D01*
X1936Y511D02*
X1942Y511D01*
X1950Y511D02*
X1956Y511D01*
X1919Y510D02*
X1926Y510D01*
X1936Y510D02*
X1942Y510D01*
X1950Y510D02*
X1956Y510D01*
X1919Y509D02*
X1926Y509D01*
X1936Y509D02*
X1942Y509D01*
X1950Y509D02*
X1956Y509D01*
X1920Y508D02*
X1927Y508D01*
X1935Y508D02*
X1942Y508D01*
X1950Y508D02*
X1956Y508D01*
X1920Y507D02*
X1928Y507D01*
X1935Y507D02*
X1942Y507D01*
X1949Y507D02*
X1956Y507D01*
X1921Y506D02*
X1928Y506D01*
X1934Y506D02*
X1942Y506D01*
X1945Y506D02*
X1956Y506D01*
X1921Y505D02*
X1955Y505D01*
X1919Y504D02*
X1955Y504D01*
X1918Y503D02*
X1954Y503D01*
X1918Y502D02*
X1953Y502D01*
X1918Y501D02*
X1952Y501D01*
X1919Y500D02*
X1950Y500D01*
X1919Y499D02*
X1945Y499D01*
X1919Y482D02*
X1955Y482D01*
X1919Y481D02*
X1956Y481D01*
X1918Y480D02*
X1956Y480D01*
X1918Y479D02*
X1956Y479D01*
X1918Y478D02*
X1956Y478D01*
X1919Y477D02*
X1956Y477D01*
X1920Y476D02*
X1954Y476D01*
X1941Y475D02*
X1949Y475D01*
X1942Y474D02*
X1950Y474D01*
X1943Y473D02*
X1951Y473D01*
X1944Y472D02*
X1952Y472D01*
X1945Y471D02*
X1953Y471D01*
X1945Y470D02*
X1954Y470D01*
X1946Y469D02*
X1955Y469D01*
X1947Y468D02*
X1955Y468D01*
X1948Y467D02*
X1956Y467D01*
X1949Y466D02*
X1956Y466D01*
X1950Y465D02*
X1956Y465D01*
X1950Y464D02*
X1956Y464D01*
X1950Y463D02*
X1956Y463D01*
X1950Y462D02*
X1956Y462D01*
X1950Y461D02*
X1956Y461D01*
X1950Y460D02*
X1956Y460D01*
X1950Y459D02*
X1956Y459D01*
X1950Y458D02*
X1956Y458D01*
X1950Y457D02*
X1956Y457D01*
X1949Y456D02*
X1956Y456D01*
X1944Y455D02*
X1956Y455D01*
X1943Y454D02*
X1955Y454D01*
X1942Y453D02*
X1955Y453D01*
X1942Y452D02*
X1954Y452D01*
X1942Y451D02*
X1953Y451D01*
X1942Y450D02*
X1952Y450D01*
X1943Y449D02*
X1950Y449D01*
X1952Y432D02*
X1955Y432D01*
X1951Y431D02*
X1956Y431D01*
X1951Y430D02*
X1956Y430D01*
X1950Y429D02*
X1956Y429D01*
X1950Y428D02*
X1956Y428D01*
X1950Y427D02*
X1956Y427D01*
X1950Y426D02*
X1957Y426D01*
X1924Y425D02*
X1967Y425D01*
X1923Y424D02*
X1968Y424D01*
X1921Y423D02*
X1968Y423D01*
X1920Y422D02*
X1968Y422D01*
X1920Y421D02*
X1968Y421D01*
X1919Y420D02*
X1967Y420D01*
X1919Y419D02*
X1965Y419D01*
X1918Y418D02*
X1925Y418D01*
X1950Y418D02*
X1956Y418D01*
X1918Y417D02*
X1924Y417D01*
X1950Y417D02*
X1956Y417D01*
X1918Y416D02*
X1924Y416D01*
X1950Y416D02*
X1956Y416D01*
X1918Y415D02*
X1924Y415D01*
X1950Y415D02*
X1956Y415D01*
X1918Y414D02*
X1924Y414D01*
X1950Y414D02*
X1956Y414D01*
X1918Y413D02*
X1924Y413D01*
X1950Y413D02*
X1956Y413D01*
X1918Y412D02*
X1924Y412D01*
X1950Y412D02*
X1956Y412D01*
X1918Y411D02*
X1924Y411D01*
X1950Y411D02*
X1956Y411D01*
X1918Y410D02*
X1924Y410D01*
X1950Y410D02*
X1956Y410D01*
X1918Y409D02*
X1924Y409D01*
X1950Y409D02*
X1956Y409D01*
X1918Y408D02*
X1924Y408D01*
X1950Y408D02*
X1956Y408D01*
X1918Y407D02*
X1925Y407D01*
X1950Y407D02*
X1956Y407D01*
X1918Y406D02*
X1925Y406D01*
X1950Y406D02*
X1956Y406D01*
X1919Y405D02*
X1927Y405D01*
X1950Y405D02*
X1956Y405D01*
X1919Y404D02*
X1929Y404D01*
X1951Y404D02*
X1956Y404D01*
X1920Y403D02*
X1930Y403D01*
X1951Y403D02*
X1956Y403D01*
X1920Y402D02*
X1930Y402D01*
X1953Y402D02*
X1954Y402D01*
X1921Y401D02*
X1930Y401D01*
X1923Y400D02*
X1929Y400D01*
X1924Y399D02*
X1929Y399D01*
X1919Y382D02*
X1923Y382D01*
X1967Y382D02*
X1970Y382D01*
X1919Y381D02*
X1924Y381D01*
X1966Y381D02*
X1971Y381D01*
X1918Y380D02*
X1924Y380D01*
X1965Y380D02*
X1971Y380D01*
X1918Y379D02*
X1924Y379D01*
X1965Y379D02*
X1971Y379D01*
X1918Y378D02*
X1924Y378D01*
X1965Y378D02*
X1971Y378D01*
X1918Y377D02*
X1924Y377D01*
X1965Y377D02*
X1971Y377D01*
X1918Y376D02*
X1924Y376D01*
X1965Y376D02*
X1971Y376D01*
X1918Y375D02*
X1924Y375D01*
X1965Y375D02*
X1971Y375D01*
X1918Y374D02*
X1924Y374D01*
X1965Y374D02*
X1971Y374D01*
X1918Y373D02*
X1924Y373D01*
X1965Y373D02*
X1971Y373D01*
X1918Y372D02*
X1924Y372D01*
X1965Y372D02*
X1971Y372D01*
X1918Y371D02*
X1924Y371D01*
X1965Y371D02*
X1971Y371D01*
X1918Y370D02*
X1924Y370D01*
X1965Y370D02*
X1971Y370D01*
X1918Y369D02*
X1971Y369D01*
X1918Y368D02*
X1971Y368D01*
X1918Y367D02*
X1971Y367D01*
X1918Y366D02*
X1971Y366D01*
X1918Y365D02*
X1971Y365D01*
X1918Y364D02*
X1971Y364D01*
X1918Y363D02*
X1971Y363D01*
X1918Y362D02*
X1971Y362D01*
X1918Y361D02*
X1924Y361D01*
X1918Y360D02*
X1924Y360D01*
X1918Y359D02*
X1924Y359D01*
X1918Y358D02*
X1924Y358D01*
X1918Y357D02*
X1924Y357D01*
X1918Y356D02*
X1924Y356D01*
X1918Y355D02*
X1939Y355D01*
X1918Y354D02*
X1941Y354D01*
X1918Y353D02*
X1941Y353D01*
X1918Y352D02*
X1942Y352D01*
X1918Y351D02*
X1942Y351D01*
X1919Y350D02*
X1941Y350D01*
X1919Y349D02*
X1940Y349D01*
D02*
G04 End of Silk1*
M02*