G04 MADE WITH FRITZING*
G04 WWW.FRITZING.ORG*
G04 DOUBLE SIDED*
G04 HOLES PLATED*
G04 CONTOUR ON CENTER OF CONTOUR VECTOR*
%ASAXBY*%
%FSLAX23Y23*%
%MOIN*%
%OFA0B0*%
%SFA1.0B1.0*%
%ADD10C,0.076000*%
%ADD11C,0.071889*%
%ADD12C,0.071917*%
%ADD13C,0.094488*%
%ADD14R,0.076000X0.076000*%
%ADD15C,0.024000*%
%LNCOPPER0*%
G90*
G70*
G54D10*
X1343Y1265D03*
X1343Y1165D03*
X1343Y1065D03*
X1343Y965D03*
X1343Y865D03*
X1343Y765D03*
X1343Y665D03*
G54D11*
X143Y1765D03*
X243Y1765D03*
X343Y1765D03*
X443Y1765D03*
G54D12*
X543Y1765D03*
G54D11*
X643Y1765D03*
X743Y1765D03*
X843Y1765D03*
X943Y1765D03*
G54D12*
X1043Y1765D03*
G54D11*
X1143Y1765D03*
G54D12*
X1243Y1765D03*
G54D11*
X1343Y1765D03*
X1443Y1765D03*
X1543Y1765D03*
X1643Y1765D03*
G54D12*
X1743Y1765D03*
G54D11*
X1843Y1765D03*
X1943Y1765D03*
X2043Y1765D03*
X2043Y1865D03*
X1943Y1865D03*
X1843Y1865D03*
G54D12*
X1743Y1865D03*
G54D11*
X1643Y1865D03*
X1543Y1865D03*
X1443Y1865D03*
X1343Y1865D03*
G54D12*
X1243Y1865D03*
G54D11*
X1143Y1865D03*
G54D12*
X1043Y1865D03*
G54D11*
X943Y1865D03*
X843Y1865D03*
X743Y1865D03*
X643Y1865D03*
G54D12*
X543Y1865D03*
G54D11*
X443Y1865D03*
X343Y1865D03*
X243Y1865D03*
X143Y1865D03*
G54D13*
X143Y1265D03*
X543Y1165D03*
X243Y765D03*
X343Y665D03*
X943Y965D03*
G54D14*
X1343Y1265D03*
G54D15*
X1312Y1165D02*
X570Y1165D01*
D02*
X270Y765D02*
X1312Y765D01*
D02*
X1312Y665D02*
X370Y665D01*
D02*
X170Y1265D02*
X1312Y1265D01*
D02*
X970Y965D02*
X1312Y965D01*
G04 End of Copper0*
M02*