G04 MADE WITH FRITZING*
G04 WWW.FRITZING.ORG*
G04 DOUBLE SIDED*
G04 HOLES PLATED*
G04 CONTOUR ON CENTER OF CONTOUR VECTOR*
%ASAXBY*%
%FSLAX23Y23*%
%MOIN*%
%OFA0B0*%
%SFA1.0B1.0*%
%ADD10C,0.086000*%
%ADD11C,0.081889*%
%ADD12C,0.081917*%
%ADD13C,0.104488*%
%ADD14R,0.086000X0.086000*%
%LNMASK1*%
G90*
G70*
G54D10*
X1343Y1265D03*
X1343Y1165D03*
X1343Y1065D03*
X1343Y965D03*
X1343Y865D03*
X1343Y765D03*
X1343Y665D03*
G54D11*
X143Y1765D03*
X243Y1765D03*
X343Y1765D03*
X443Y1765D03*
G54D12*
X543Y1765D03*
G54D11*
X643Y1765D03*
X743Y1765D03*
X843Y1765D03*
X943Y1765D03*
G54D12*
X1043Y1765D03*
G54D11*
X1143Y1765D03*
G54D12*
X1243Y1765D03*
G54D11*
X1343Y1765D03*
X1443Y1765D03*
X1543Y1765D03*
X1643Y1765D03*
G54D12*
X1743Y1765D03*
G54D11*
X1843Y1765D03*
X1943Y1765D03*
X2043Y1765D03*
X2043Y1865D03*
X1943Y1865D03*
X1843Y1865D03*
G54D12*
X1743Y1865D03*
G54D11*
X1643Y1865D03*
X1543Y1865D03*
X1443Y1865D03*
X1343Y1865D03*
G54D12*
X1243Y1865D03*
G54D11*
X1143Y1865D03*
G54D12*
X1043Y1865D03*
G54D11*
X943Y1865D03*
X843Y1865D03*
X743Y1865D03*
X643Y1865D03*
G54D12*
X543Y1865D03*
G54D11*
X443Y1865D03*
X343Y1865D03*
X243Y1865D03*
X143Y1865D03*
G54D13*
X143Y1265D03*
X543Y1165D03*
X243Y765D03*
X343Y665D03*
X943Y965D03*
G54D14*
X1343Y1265D03*
G04 End of Mask1*
M02*