; NON-PLATED HOLES START AT T1
; THROUGH (PLATED) HOLES START AT T100
M48
INCH
T100C0.044139
T101C0.031496
T102C0.044111
T103C0.039370
%
T100
X010429Y018651
X012429Y018651
X017429Y017651
X005429Y017651
X017429Y018651
X005429Y018651
X012429Y017651
X010429Y017651
T101
X002429Y007651
X003429Y006651
X001429Y012651
X009429Y009651
X005429Y011651
T102
X006429Y018651
X013429Y018651
X018429Y017651
X009428Y017651
X003429Y018651
X003429Y017651
X004428Y017651
X008429Y018651
X007428Y018651
X016429Y017651
X013429Y017651
X001429Y017651
X019428Y017651
X014428Y017651
X008429Y017651
X011429Y018651
X020429Y018651
X004428Y018651
X009428Y018651
X019428Y018651
X001429Y018651
X011429Y017651
X002428Y018651
X020429Y017651
X014428Y018651
X007428Y017651
X015429Y018651
X015429Y017651
X006429Y017651
X016429Y018651
X002428Y017651
X018429Y018651
T103
X013429Y011651
X013429Y010651
X013429Y012651
X013429Y008651
X013429Y006651
X013429Y009651
X013429Y007651
T00
M30
